<?xml version="1.0" encoding="UTF-8" standalone="no"?>
<!DOCTYPE svg PUBLIC "-//W3C//DTD SVG 1.1//EN"
 "http://www.w3.org/Graphics/SVG/1.1/DTD/svg11.dtd">
<!-- Generated by graphviz version 2.28.0 (20120305.0235)
 -->
<!-- Title: controllers_diagram Pages: 1 -->
<svg width="614pt" height="668pt"
 viewBox="0.00 0.00 614.00 668.00" xmlns="http://www.w3.org/2000/svg" xmlns:xlink="http://www.w3.org/1999/xlink">
<g id="graph1" class="graph" transform="scale(1 1) rotate(0) translate(4 664)">
<title>controllers_diagram</title>
<polygon fill="white" stroke="white" points="-4,5 -4,-664 611,-664 611,5 -4,5"/>
<!-- _diagram_info -->
<g id="node1" class="node"><title>_diagram_info</title>
<text text-anchor="start" x="281" y="-67.3" font-family="Times,serif" font-size="13.00">Controllers diagram</text>
<text text-anchor="start" x="281" y="-52.3" font-family="Times,serif" font-size="13.00">Date: Mar 04 2012 &#45; 20:38</text>
<text text-anchor="start" x="281" y="-37.3" font-family="Times,serif" font-size="13.00">Migration version: 20120304223241</text>
<text text-anchor="start" x="281" y="-22.3" font-family="Times,serif" font-size="13.00">Generated by RailRoady 1.0.7</text>
<text text-anchor="start" x="281" y="-7.3" font-family="Times,serif" font-size="13.00">http://railroady.prestonlee.com</text>
</g>
<!-- AddressesController -->
<g id="node2" class="node"><title>AddressesController</title>
<polyline fill="none" stroke="black" points="12,-252.5 119,-252.5 "/>
<path fill="none" stroke="black" d="M119,-252.5C125,-252.5 131,-258.5 131,-264.5"/>
<polyline fill="none" stroke="black" points="131,-264.5 131,-432.5 "/>
<path fill="none" stroke="black" d="M131,-432.5C131,-438.5 125,-444.5 119,-444.5"/>
<polyline fill="none" stroke="black" points="119,-444.5 12,-444.5 "/>
<path fill="none" stroke="black" d="M12,-444.5C6,-444.5 0,-438.5 0,-432.5"/>
<polyline fill="none" stroke="black" points="0,-432.5 0,-264.5 "/>
<path fill="none" stroke="black" d="M0,-264.5C0,-258.5 6,-252.5 12,-252.5"/>
<text text-anchor="middle" x="65.5" y="-427.9" font-family="Times,serif" font-size="14.00">AddressesController</text>
<polyline fill="none" stroke="black" points="0,-420.5 131,-420.5 "/>
<text text-anchor="start" x="8" y="-403.9" font-family="Times,serif" font-size="14.00">addressdisplay</text>
<text text-anchor="start" x="8" y="-387.9" font-family="Times,serif" font-size="14.00">create</text>
<text text-anchor="start" x="8" y="-371.9" font-family="Times,serif" font-size="14.00">destroy</text>
<text text-anchor="start" x="8" y="-355.9" font-family="Times,serif" font-size="14.00">edit</text>
<text text-anchor="start" x="8" y="-339.9" font-family="Times,serif" font-size="14.00">new</text>
<text text-anchor="start" x="8" y="-323.9" font-family="Times,serif" font-size="14.00">show</text>
<text text-anchor="start" x="8" y="-307.9" font-family="Times,serif" font-size="14.00">update</text>
<polyline fill="none" stroke="black" points="0,-300.5 131,-300.5 "/>
<polyline fill="none" stroke="black" points="0,-276.5 131,-276.5 "/>
<text text-anchor="start" x="8" y="-259.9" font-family="Times,serif" font-size="14.00">_layout</text>
</g>
<!-- ApplicationController -->
<g id="node3" class="node"><title>ApplicationController</title>
<polyline fill="none" stroke="black" points="180,-126.5 357,-126.5 "/>
<path fill="none" stroke="black" d="M357,-126.5C363,-126.5 369,-132.5 369,-138.5"/>
<polyline fill="none" stroke="black" points="369,-138.5 369,-354.5 "/>
<path fill="none" stroke="black" d="M369,-354.5C369,-360.5 363,-366.5 357,-366.5"/>
<polyline fill="none" stroke="black" points="357,-366.5 180,-366.5 "/>
<path fill="none" stroke="black" d="M180,-366.5C174,-366.5 168,-360.5 168,-354.5"/>
<polyline fill="none" stroke="black" points="168,-354.5 168,-138.5 "/>
<path fill="none" stroke="black" d="M168,-138.5C168,-132.5 174,-126.5 180,-126.5"/>
<text text-anchor="middle" x="268.5" y="-349.9" font-family="Times,serif" font-size="14.00">ApplicationController</text>
<polyline fill="none" stroke="black" points="168,-342.5 369,-342.5 "/>
<text text-anchor="start" x="176" y="-325.9" font-family="Times,serif" font-size="14.00">_one_time_conditions_valid_74?</text>
<text text-anchor="start" x="176" y="-309.9" font-family="Times,serif" font-size="14.00">about</text>
<text text-anchor="start" x="176" y="-293.9" font-family="Times,serif" font-size="14.00">faq</text>
<polyline fill="none" stroke="black" points="168,-286.5 369,-286.5 "/>
<polyline fill="none" stroke="black" points="168,-262.5 369,-262.5 "/>
<text text-anchor="start" x="176" y="-245.9" font-family="Times,serif" font-size="14.00">_layout</text>
<text text-anchor="start" x="176" y="-229.9" font-family="Times,serif" font-size="14.00">_run_process_action_callbacks</text>
<text text-anchor="start" x="176" y="-213.9" font-family="Times,serif" font-size="14.00">current_user</text>
<text text-anchor="start" x="176" y="-197.9" font-family="Times,serif" font-size="14.00">current_user_session</text>
<text text-anchor="start" x="176" y="-181.9" font-family="Times,serif" font-size="14.00">redirect_back_or_default</text>
<text text-anchor="start" x="176" y="-165.9" font-family="Times,serif" font-size="14.00">require_no_user</text>
<text text-anchor="start" x="176" y="-149.9" font-family="Times,serif" font-size="14.00">require_user</text>
<text text-anchor="start" x="176" y="-133.9" font-family="Times,serif" font-size="14.00">store_location</text>
</g>
<!-- SubscribersController -->
<g id="node4" class="node"><title>SubscribersController</title>
<polyline fill="none" stroke="black" points="243,-399.5 356,-399.5 "/>
<path fill="none" stroke="black" d="M356,-399.5C362,-399.5 368,-405.5 368,-411.5"/>
<polyline fill="none" stroke="black" points="368,-411.5 368,-579.5 "/>
<path fill="none" stroke="black" d="M368,-579.5C368,-585.5 362,-591.5 356,-591.5"/>
<polyline fill="none" stroke="black" points="356,-591.5 243,-591.5 "/>
<path fill="none" stroke="black" d="M243,-591.5C237,-591.5 231,-585.5 231,-579.5"/>
<polyline fill="none" stroke="black" points="231,-579.5 231,-411.5 "/>
<path fill="none" stroke="black" d="M231,-411.5C231,-405.5 237,-399.5 243,-399.5"/>
<text text-anchor="middle" x="299.5" y="-574.9" font-family="Times,serif" font-size="14.00">SubscribersController</text>
<polyline fill="none" stroke="black" points="231,-567.5 368,-567.5 "/>
<text text-anchor="start" x="239" y="-550.9" font-family="Times,serif" font-size="14.00">create</text>
<text text-anchor="start" x="239" y="-534.9" font-family="Times,serif" font-size="14.00">destroy</text>
<text text-anchor="start" x="239" y="-518.9" font-family="Times,serif" font-size="14.00">edit</text>
<text text-anchor="start" x="239" y="-502.9" font-family="Times,serif" font-size="14.00">index</text>
<text text-anchor="start" x="239" y="-486.9" font-family="Times,serif" font-size="14.00">new</text>
<text text-anchor="start" x="239" y="-470.9" font-family="Times,serif" font-size="14.00">show</text>
<text text-anchor="start" x="239" y="-454.9" font-family="Times,serif" font-size="14.00">update</text>
<polyline fill="none" stroke="black" points="231,-447.5 368,-447.5 "/>
<polyline fill="none" stroke="black" points="231,-423.5 368,-423.5 "/>
<text text-anchor="start" x="239" y="-406.9" font-family="Times,serif" font-size="14.00">_layout</text>
</g>
<!-- SubscriptionsController -->
<g id="node5" class="node"><title>SubscriptionsController</title>
<polyline fill="none" stroke="black" points="54,-483.5 178,-483.5 "/>
<path fill="none" stroke="black" d="M178,-483.5C184,-483.5 190,-489.5 190,-495.5"/>
<polyline fill="none" stroke="black" points="190,-495.5 190,-647.5 "/>
<path fill="none" stroke="black" d="M190,-647.5C190,-653.5 184,-659.5 178,-659.5"/>
<polyline fill="none" stroke="black" points="178,-659.5 54,-659.5 "/>
<path fill="none" stroke="black" d="M54,-659.5C48,-659.5 42,-653.5 42,-647.5"/>
<polyline fill="none" stroke="black" points="42,-647.5 42,-495.5 "/>
<path fill="none" stroke="black" d="M42,-495.5C42,-489.5 48,-483.5 54,-483.5"/>
<text text-anchor="middle" x="116" y="-642.9" font-family="Times,serif" font-size="14.00">SubscriptionsController</text>
<polyline fill="none" stroke="black" points="42,-635.5 190,-635.5 "/>
<text text-anchor="start" x="50" y="-618.9" font-family="Times,serif" font-size="14.00">create</text>
<text text-anchor="start" x="50" y="-602.9" font-family="Times,serif" font-size="14.00">destroy</text>
<text text-anchor="start" x="50" y="-586.9" font-family="Times,serif" font-size="14.00">edit</text>
<text text-anchor="start" x="50" y="-570.9" font-family="Times,serif" font-size="14.00">new</text>
<text text-anchor="start" x="50" y="-554.9" font-family="Times,serif" font-size="14.00">show</text>
<text text-anchor="start" x="50" y="-538.9" font-family="Times,serif" font-size="14.00">update</text>
<polyline fill="none" stroke="black" points="42,-531.5 190,-531.5 "/>
<polyline fill="none" stroke="black" points="42,-507.5 190,-507.5 "/>
<text text-anchor="start" x="50" y="-490.9" font-family="Times,serif" font-size="14.00">_layout</text>
</g>
<!-- UserSessionsController -->
<g id="node6" class="node"><title>UserSessionsController</title>
<polyline fill="none" stroke="black" points="411,-378.5 588,-378.5 "/>
<path fill="none" stroke="black" d="M588,-378.5C594,-378.5 600,-384.5 600,-390.5"/>
<polyline fill="none" stroke="black" points="600,-390.5 600,-542.5 "/>
<path fill="none" stroke="black" d="M600,-542.5C600,-548.5 594,-554.5 588,-554.5"/>
<polyline fill="none" stroke="black" points="588,-554.5 411,-554.5 "/>
<path fill="none" stroke="black" d="M411,-554.5C405,-554.5 399,-548.5 399,-542.5"/>
<polyline fill="none" stroke="black" points="399,-542.5 399,-390.5 "/>
<path fill="none" stroke="black" d="M399,-390.5C399,-384.5 405,-378.5 411,-378.5"/>
<text text-anchor="middle" x="499.5" y="-537.9" font-family="Times,serif" font-size="14.00">UserSessionsController</text>
<polyline fill="none" stroke="black" points="399,-530.5 600,-530.5 "/>
<text text-anchor="start" x="407" y="-513.9" font-family="Times,serif" font-size="14.00">_one_time_conditions_valid_90?</text>
<text text-anchor="start" x="407" y="-497.9" font-family="Times,serif" font-size="14.00">_one_time_conditions_valid_94?</text>
<text text-anchor="start" x="407" y="-481.9" font-family="Times,serif" font-size="14.00">create</text>
<text text-anchor="start" x="407" y="-465.9" font-family="Times,serif" font-size="14.00">destroy</text>
<text text-anchor="start" x="407" y="-449.9" font-family="Times,serif" font-size="14.00">new</text>
<polyline fill="none" stroke="black" points="399,-442.5 600,-442.5 "/>
<polyline fill="none" stroke="black" points="399,-418.5 600,-418.5 "/>
<text text-anchor="start" x="407" y="-401.9" font-family="Times,serif" font-size="14.00">_layout</text>
<text text-anchor="start" x="407" y="-385.9" font-family="Times,serif" font-size="14.00">_run_process_action_callbacks</text>
</g>
<!-- UsersController -->
<g id="node7" class="node"><title>UsersController</title>
<polyline fill="none" stroke="black" points="411,-126.5 594,-126.5 "/>
<path fill="none" stroke="black" d="M594,-126.5C600,-126.5 606,-132.5 606,-138.5"/>
<polyline fill="none" stroke="black" points="606,-138.5 606,-322.5 "/>
<path fill="none" stroke="black" d="M606,-322.5C606,-328.5 600,-334.5 594,-334.5"/>
<polyline fill="none" stroke="black" points="594,-334.5 411,-334.5 "/>
<path fill="none" stroke="black" d="M411,-334.5C405,-334.5 399,-328.5 399,-322.5"/>
<polyline fill="none" stroke="black" points="399,-322.5 399,-138.5 "/>
<path fill="none" stroke="black" d="M399,-138.5C399,-132.5 405,-126.5 411,-126.5"/>
<text text-anchor="middle" x="502.5" y="-317.9" font-family="Times,serif" font-size="14.00">UsersController</text>
<polyline fill="none" stroke="black" points="399,-310.5 606,-310.5 "/>
<text text-anchor="start" x="407" y="-293.9" font-family="Times,serif" font-size="14.00">_one_time_conditions_valid_178?</text>
<text text-anchor="start" x="407" y="-277.9" font-family="Times,serif" font-size="14.00">confirm</text>
<text text-anchor="start" x="407" y="-261.9" font-family="Times,serif" font-size="14.00">create</text>
<text text-anchor="start" x="407" y="-245.9" font-family="Times,serif" font-size="14.00">edit</text>
<text text-anchor="start" x="407" y="-229.9" font-family="Times,serif" font-size="14.00">new</text>
<text text-anchor="start" x="407" y="-213.9" font-family="Times,serif" font-size="14.00">show</text>
<text text-anchor="start" x="407" y="-197.9" font-family="Times,serif" font-size="14.00">update</text>
<polyline fill="none" stroke="black" points="399,-190.5 606,-190.5 "/>
<polyline fill="none" stroke="black" points="399,-166.5 606,-166.5 "/>
<text text-anchor="start" x="407" y="-149.9" font-family="Times,serif" font-size="14.00">_layout</text>
<text text-anchor="start" x="407" y="-133.9" font-family="Times,serif" font-size="14.00">_run_process_action_callbacks</text>
</g>
</g>
</svg>
