<?xml version="1.0" encoding="UTF-8" standalone="no"?>
<!DOCTYPE svg PUBLIC "-//W3C//DTD SVG 1.1//EN"
 "http://www.w3.org/Graphics/SVG/1.1/DTD/svg11.dtd">
<!-- Generated by graphviz version 2.28.0 (20120305.0235)
 -->
<!-- Title: controllers_diagram Pages: 1 -->
<svg width="685pt" height="621pt"
 viewBox="0.00 0.00 685.00 621.00" xmlns="http://www.w3.org/2000/svg" xmlns:xlink="http://www.w3.org/1999/xlink">
<g id="graph1" class="graph" transform="scale(1 1) rotate(0) translate(4 617)">
<title>controllers_diagram</title>
<polygon fill="white" stroke="white" points="-4,5 -4,-617 682,-617 682,5 -4,5"/>
<!-- _diagram_info -->
<g id="node1" class="node"><title>_diagram_info</title>
<text text-anchor="start" x="308" y="-87.3" font-family="Times,serif" font-size="13.00">Controllers diagram</text>
<text text-anchor="start" x="308" y="-72.3" font-family="Times,serif" font-size="13.00">Date: Apr 29 2012 &#45; 21:02</text>
<text text-anchor="start" x="308" y="-57.3" font-family="Times,serif" font-size="13.00">Migration version: 20120412225032</text>
<text text-anchor="start" x="308" y="-42.3" font-family="Times,serif" font-size="13.00">Generated by RailRoady 1.0.7</text>
<text text-anchor="start" x="308" y="-27.3" font-family="Times,serif" font-size="13.00">http://railroady.prestonlee.com</text>
</g>
<!-- AddressesController -->
<g id="node2" class="node"><title>AddressesController</title>
<polyline fill="none" stroke="black" points="32,-260.5 139,-260.5 "/>
<path fill="none" stroke="black" d="M139,-260.5C145,-260.5 151,-266.5 151,-272.5"/>
<polyline fill="none" stroke="black" points="151,-272.5 151,-440.5 "/>
<path fill="none" stroke="black" d="M151,-440.5C151,-446.5 145,-452.5 139,-452.5"/>
<polyline fill="none" stroke="black" points="139,-452.5 32,-452.5 "/>
<path fill="none" stroke="black" d="M32,-452.5C26,-452.5 20,-446.5 20,-440.5"/>
<polyline fill="none" stroke="black" points="20,-440.5 20,-272.5 "/>
<path fill="none" stroke="black" d="M20,-272.5C20,-266.5 26,-260.5 32,-260.5"/>
<text text-anchor="middle" x="85.5" y="-435.9" font-family="Times,serif" font-size="14.00">AddressesController</text>
<polyline fill="none" stroke="black" points="20,-428.5 151,-428.5 "/>
<text text-anchor="start" x="28" y="-411.9" font-family="Times,serif" font-size="14.00">addressdisplay</text>
<text text-anchor="start" x="28" y="-395.9" font-family="Times,serif" font-size="14.00">create</text>
<text text-anchor="start" x="28" y="-379.9" font-family="Times,serif" font-size="14.00">destroy</text>
<text text-anchor="start" x="28" y="-363.9" font-family="Times,serif" font-size="14.00">edit</text>
<text text-anchor="start" x="28" y="-347.9" font-family="Times,serif" font-size="14.00">new</text>
<text text-anchor="start" x="28" y="-331.9" font-family="Times,serif" font-size="14.00">show</text>
<text text-anchor="start" x="28" y="-315.9" font-family="Times,serif" font-size="14.00">update</text>
<polyline fill="none" stroke="black" points="20,-308.5 151,-308.5 "/>
<polyline fill="none" stroke="black" points="20,-284.5 151,-284.5 "/>
<text text-anchor="start" x="28" y="-267.9" font-family="Times,serif" font-size="14.00">_layout</text>
</g>
<!-- ApplicationController -->
<g id="node3" class="node"><title>ApplicationController</title>
<polyline fill="none" stroke="black" points="432,-140.5 609,-140.5 "/>
<path fill="none" stroke="black" d="M609,-140.5C615,-140.5 621,-146.5 621,-152.5"/>
<polyline fill="none" stroke="black" points="621,-152.5 621,-368.5 "/>
<path fill="none" stroke="black" d="M621,-368.5C621,-374.5 615,-380.5 609,-380.5"/>
<polyline fill="none" stroke="black" points="609,-380.5 432,-380.5 "/>
<path fill="none" stroke="black" d="M432,-380.5C426,-380.5 420,-374.5 420,-368.5"/>
<polyline fill="none" stroke="black" points="420,-368.5 420,-152.5 "/>
<path fill="none" stroke="black" d="M420,-152.5C420,-146.5 426,-140.5 432,-140.5"/>
<text text-anchor="middle" x="520.5" y="-363.9" font-family="Times,serif" font-size="14.00">ApplicationController</text>
<polyline fill="none" stroke="black" points="420,-356.5 621,-356.5 "/>
<text text-anchor="start" x="428" y="-339.9" font-family="Times,serif" font-size="14.00">_one_time_conditions_valid_74?</text>
<text text-anchor="start" x="428" y="-323.9" font-family="Times,serif" font-size="14.00">about</text>
<text text-anchor="start" x="428" y="-307.9" font-family="Times,serif" font-size="14.00">faq</text>
<polyline fill="none" stroke="black" points="420,-300.5 621,-300.5 "/>
<polyline fill="none" stroke="black" points="420,-276.5 621,-276.5 "/>
<text text-anchor="start" x="428" y="-259.9" font-family="Times,serif" font-size="14.00">_layout</text>
<text text-anchor="start" x="428" y="-243.9" font-family="Times,serif" font-size="14.00">_run_process_action_callbacks</text>
<text text-anchor="start" x="428" y="-227.9" font-family="Times,serif" font-size="14.00">current_user</text>
<text text-anchor="start" x="428" y="-211.9" font-family="Times,serif" font-size="14.00">current_user_session</text>
<text text-anchor="start" x="428" y="-195.9" font-family="Times,serif" font-size="14.00">redirect_back_or_default</text>
<text text-anchor="start" x="428" y="-179.9" font-family="Times,serif" font-size="14.00">require_no_user</text>
<text text-anchor="start" x="428" y="-163.9" font-family="Times,serif" font-size="14.00">require_user</text>
<text text-anchor="start" x="428" y="-147.9" font-family="Times,serif" font-size="14.00">store_location</text>
</g>
<!-- StaticPagesController -->
<g id="node4" class="node"><title>StaticPagesController</title>
<polyline fill="none" stroke="black" points="552,-0.5 665,-0.5 "/>
<path fill="none" stroke="black" d="M665,-0.5C671,-0.5 677,-6.5 677,-12.5"/>
<polyline fill="none" stroke="black" points="677,-12.5 677,-84.5 "/>
<path fill="none" stroke="black" d="M677,-84.5C677,-90.5 671,-96.5 665,-96.5"/>
<polyline fill="none" stroke="black" points="665,-96.5 552,-96.5 "/>
<path fill="none" stroke="black" d="M552,-96.5C546,-96.5 540,-90.5 540,-84.5"/>
<polyline fill="none" stroke="black" points="540,-84.5 540,-12.5 "/>
<path fill="none" stroke="black" d="M540,-12.5C540,-6.5 546,-0.5 552,-0.5"/>
<text text-anchor="middle" x="608.5" y="-79.9" font-family="Times,serif" font-size="14.00">StaticPagesController</text>
<polyline fill="none" stroke="black" points="540,-72.5 677,-72.5 "/>
<text text-anchor="start" x="548" y="-55.9" font-family="Times,serif" font-size="14.00">error</text>
<polyline fill="none" stroke="black" points="540,-48.5 677,-48.5 "/>
<polyline fill="none" stroke="black" points="540,-24.5 677,-24.5 "/>
<text text-anchor="start" x="548" y="-7.9" font-family="Times,serif" font-size="14.00">_layout</text>
</g>
<!-- SubscribersController -->
<g id="node5" class="node"><title>SubscribersController</title>
<polyline fill="none" stroke="black" points="472,-420.5 585,-420.5 "/>
<path fill="none" stroke="black" d="M585,-420.5C591,-420.5 597,-426.5 597,-432.5"/>
<polyline fill="none" stroke="black" points="597,-432.5 597,-600.5 "/>
<path fill="none" stroke="black" d="M597,-600.5C597,-606.5 591,-612.5 585,-612.5"/>
<polyline fill="none" stroke="black" points="585,-612.5 472,-612.5 "/>
<path fill="none" stroke="black" d="M472,-612.5C466,-612.5 460,-606.5 460,-600.5"/>
<polyline fill="none" stroke="black" points="460,-600.5 460,-432.5 "/>
<path fill="none" stroke="black" d="M460,-432.5C460,-426.5 466,-420.5 472,-420.5"/>
<text text-anchor="middle" x="528.5" y="-595.9" font-family="Times,serif" font-size="14.00">SubscribersController</text>
<polyline fill="none" stroke="black" points="460,-588.5 597,-588.5 "/>
<text text-anchor="start" x="468" y="-571.9" font-family="Times,serif" font-size="14.00">create</text>
<text text-anchor="start" x="468" y="-555.9" font-family="Times,serif" font-size="14.00">destroy</text>
<text text-anchor="start" x="468" y="-539.9" font-family="Times,serif" font-size="14.00">edit</text>
<text text-anchor="start" x="468" y="-523.9" font-family="Times,serif" font-size="14.00">index</text>
<text text-anchor="start" x="468" y="-507.9" font-family="Times,serif" font-size="14.00">new</text>
<text text-anchor="start" x="468" y="-491.9" font-family="Times,serif" font-size="14.00">show</text>
<text text-anchor="start" x="468" y="-475.9" font-family="Times,serif" font-size="14.00">update</text>
<polyline fill="none" stroke="black" points="460,-468.5 597,-468.5 "/>
<polyline fill="none" stroke="black" points="460,-444.5 597,-444.5 "/>
<text text-anchor="start" x="468" y="-427.9" font-family="Times,serif" font-size="14.00">_layout</text>
</g>
<!-- SubscriptionsController -->
<g id="node6" class="node"><title>SubscriptionsController</title>
<polyline fill="none" stroke="black" points="12,-40.5 136,-40.5 "/>
<path fill="none" stroke="black" d="M136,-40.5C142,-40.5 148,-46.5 148,-52.5"/>
<polyline fill="none" stroke="black" points="148,-52.5 148,-204.5 "/>
<path fill="none" stroke="black" d="M148,-204.5C148,-210.5 142,-216.5 136,-216.5"/>
<polyline fill="none" stroke="black" points="136,-216.5 12,-216.5 "/>
<path fill="none" stroke="black" d="M12,-216.5C6,-216.5 0,-210.5 0,-204.5"/>
<polyline fill="none" stroke="black" points="0,-204.5 0,-52.5 "/>
<path fill="none" stroke="black" d="M0,-52.5C0,-46.5 6,-40.5 12,-40.5"/>
<text text-anchor="middle" x="74" y="-199.9" font-family="Times,serif" font-size="14.00">SubscriptionsController</text>
<polyline fill="none" stroke="black" points="0,-192.5 148,-192.5 "/>
<text text-anchor="start" x="8" y="-175.9" font-family="Times,serif" font-size="14.00">create</text>
<text text-anchor="start" x="8" y="-159.9" font-family="Times,serif" font-size="14.00">destroy</text>
<text text-anchor="start" x="8" y="-143.9" font-family="Times,serif" font-size="14.00">edit</text>
<text text-anchor="start" x="8" y="-127.9" font-family="Times,serif" font-size="14.00">new</text>
<text text-anchor="start" x="8" y="-111.9" font-family="Times,serif" font-size="14.00">show</text>
<text text-anchor="start" x="8" y="-95.9" font-family="Times,serif" font-size="14.00">update</text>
<polyline fill="none" stroke="black" points="0,-88.5 148,-88.5 "/>
<polyline fill="none" stroke="black" points="0,-64.5 148,-64.5 "/>
<text text-anchor="start" x="8" y="-47.9" font-family="Times,serif" font-size="14.00">_layout</text>
</g>
<!-- UserSessionsController -->
<g id="node7" class="node"><title>UserSessionsController</title>
<polyline fill="none" stroke="black" points="192,-400.5 375,-400.5 "/>
<path fill="none" stroke="black" d="M375,-400.5C381,-400.5 387,-406.5 387,-412.5"/>
<polyline fill="none" stroke="black" points="387,-412.5 387,-564.5 "/>
<path fill="none" stroke="black" d="M387,-564.5C387,-570.5 381,-576.5 375,-576.5"/>
<polyline fill="none" stroke="black" points="375,-576.5 192,-576.5 "/>
<path fill="none" stroke="black" d="M192,-576.5C186,-576.5 180,-570.5 180,-564.5"/>
<polyline fill="none" stroke="black" points="180,-564.5 180,-412.5 "/>
<path fill="none" stroke="black" d="M180,-412.5C180,-406.5 186,-400.5 192,-400.5"/>
<text text-anchor="middle" x="283.5" y="-559.9" font-family="Times,serif" font-size="14.00">UserSessionsController</text>
<polyline fill="none" stroke="black" points="180,-552.5 387,-552.5 "/>
<text text-anchor="start" x="188" y="-535.9" font-family="Times,serif" font-size="14.00">_one_time_conditions_valid_102?</text>
<text text-anchor="start" x="188" y="-519.9" font-family="Times,serif" font-size="14.00">_one_time_conditions_valid_106?</text>
<text text-anchor="start" x="188" y="-503.9" font-family="Times,serif" font-size="14.00">create</text>
<text text-anchor="start" x="188" y="-487.9" font-family="Times,serif" font-size="14.00">destroy</text>
<text text-anchor="start" x="188" y="-471.9" font-family="Times,serif" font-size="14.00">new</text>
<polyline fill="none" stroke="black" points="180,-464.5 387,-464.5 "/>
<polyline fill="none" stroke="black" points="180,-440.5 387,-440.5 "/>
<text text-anchor="start" x="188" y="-423.9" font-family="Times,serif" font-size="14.00">_layout</text>
<text text-anchor="start" x="188" y="-407.9" font-family="Times,serif" font-size="14.00">_run_process_action_callbacks</text>
</g>
<!-- UsersController -->
<g id="node8" class="node"><title>UsersController</title>
<polyline fill="none" stroke="black" points="192,-140.5 375,-140.5 "/>
<path fill="none" stroke="black" d="M375,-140.5C381,-140.5 387,-146.5 387,-152.5"/>
<polyline fill="none" stroke="black" points="387,-152.5 387,-352.5 "/>
<path fill="none" stroke="black" d="M387,-352.5C387,-358.5 381,-364.5 375,-364.5"/>
<polyline fill="none" stroke="black" points="375,-364.5 192,-364.5 "/>
<path fill="none" stroke="black" d="M192,-364.5C186,-364.5 180,-358.5 180,-352.5"/>
<polyline fill="none" stroke="black" points="180,-352.5 180,-152.5 "/>
<path fill="none" stroke="black" d="M180,-152.5C180,-146.5 186,-140.5 192,-140.5"/>
<text text-anchor="middle" x="283.5" y="-347.9" font-family="Times,serif" font-size="14.00">UsersController</text>
<polyline fill="none" stroke="black" points="180,-340.5 387,-340.5 "/>
<text text-anchor="start" x="188" y="-323.9" font-family="Times,serif" font-size="14.00">_one_time_conditions_valid_202?</text>
<text text-anchor="start" x="188" y="-307.9" font-family="Times,serif" font-size="14.00">confirm</text>
<text text-anchor="start" x="188" y="-291.9" font-family="Times,serif" font-size="14.00">create</text>
<text text-anchor="start" x="188" y="-275.9" font-family="Times,serif" font-size="14.00">edit</text>
<text text-anchor="start" x="188" y="-259.9" font-family="Times,serif" font-size="14.00">new</text>
<text text-anchor="start" x="188" y="-243.9" font-family="Times,serif" font-size="14.00">run_update</text>
<text text-anchor="start" x="188" y="-227.9" font-family="Times,serif" font-size="14.00">show</text>
<text text-anchor="start" x="188" y="-211.9" font-family="Times,serif" font-size="14.00">update</text>
<polyline fill="none" stroke="black" points="180,-204.5 387,-204.5 "/>
<polyline fill="none" stroke="black" points="180,-180.5 387,-180.5 "/>
<text text-anchor="start" x="188" y="-163.9" font-family="Times,serif" font-size="14.00">_layout</text>
<text text-anchor="start" x="188" y="-147.9" font-family="Times,serif" font-size="14.00">_run_process_action_callbacks</text>
</g>
</g>
</svg>
