<?xml version="1.0" encoding="UTF-8" standalone="no"?>
<!DOCTYPE svg PUBLIC "-//W3C//DTD SVG 1.1//EN"
 "http://www.w3.org/Graphics/SVG/1.1/DTD/svg11.dtd">
<!-- Generated by graphviz version 2.28.0 (20120305.0235)
 -->
<!-- Title: models_diagram Pages: 1 -->
<svg width="722pt" height="236pt"
 viewBox="0.00 0.00 722.00 236.00" xmlns="http://www.w3.org/2000/svg" xmlns:xlink="http://www.w3.org/1999/xlink">
<g id="graph1" class="graph" transform="scale(1 1) rotate(0) translate(4 232)">
<title>models_diagram</title>
<polygon fill="white" stroke="white" points="-4,5 -4,-232 719,-232 719,5 -4,5"/>
<!-- _diagram_info -->
<g id="node1" class="node"><title>_diagram_info</title>
<text text-anchor="start" x="92" y="-211.8" font-family="Times,serif" font-size="13.00">Models diagram</text>
<text text-anchor="start" x="92" y="-196.8" font-family="Times,serif" font-size="13.00">Date: Apr 29 2012 &#45; 21:02</text>
<text text-anchor="start" x="92" y="-181.8" font-family="Times,serif" font-size="13.00">Migration version: 20120412225032</text>
<text text-anchor="start" x="92" y="-166.8" font-family="Times,serif" font-size="13.00">Generated by RailRoady 1.0.7</text>
<text text-anchor="start" x="92" y="-151.8" font-family="Times,serif" font-size="13.00">http://railroady.prestonlee.com</text>
</g>
<!-- Address -->
<g id="node2" class="node"><title>Address</title>
<ellipse fill="none" stroke="black" cx="302" cy="-90" rx="41.8946" ry="18"/>
<text text-anchor="middle" x="302" y="-85.4" font-family="Times,serif" font-size="14.00">Address</text>
</g>
<!-- Subscription -->
<g id="node7" class="node"><title>Subscription</title>
<ellipse fill="none" stroke="black" cx="212" cy="-18" rx="57.5353" ry="18"/>
<text text-anchor="middle" x="212" y="-13.4" font-family="Times,serif" font-size="14.00">Subscription</text>
</g>
<!-- Address&#45;&gt;Subscription -->
<g id="edge2" class="edge"><title>Address&#45;&gt;Subscription</title>
<path fill="none" stroke="#3e5c80" d="M275.939,-68.7302C264.797,-60.0641 251.76,-49.9244 240.375,-41.0694"/>
<ellipse fill="none" stroke="#3e5c80" cx="279.314" cy="-71.3553" rx="4.00002" ry="4.00002"/>
<polygon fill="#3e5c80" stroke="#3e5c80" points="240.321,-41.0276 235.19,-31.3361 236.374,-37.9579 232.428,-34.8882 232.428,-34.8882 232.428,-34.8882 236.374,-37.9579 229.665,-38.4403 240.321,-41.0276 240.321,-41.0276"/>
</g>
<!-- Amazon -->
<g id="node3" class="node"><title>Amazon</title>
<ellipse fill="none" stroke="black" cx="43" cy="-90" rx="43.4045" ry="18"/>
<text text-anchor="middle" x="43" y="-85.4" font-family="Times,serif" font-size="14.00">Amazon</text>
</g>
<!-- Amazon&#45;&gt;Subscription -->
<g id="edge4" class="edge"><title>Amazon&#45;&gt;Subscription</title>
<path fill="none" stroke="#623229" d="M80.425,-73.4985C107.309,-62.3633 143.528,-47.3611 171.16,-35.9159"/>
<ellipse fill="none" stroke="#623229" cx="76.5203" cy="-75.1158" rx="4.00001" ry="4.00001"/>
<ellipse fill="#623229" stroke="#623229" cx="175.016" cy="-34.319" rx="4.00002" ry="4.00002"/>
</g>
<!-- Dmv -->
<g id="node4" class="node"><title>Dmv</title>
<ellipse fill="none" stroke="black" cx="134" cy="-90" rx="29.274" ry="18"/>
<text text-anchor="middle" x="134" y="-85.4" font-family="Times,serif" font-size="14.00">Dmv</text>
</g>
<!-- Dmv&#45;&gt;Subscription -->
<g id="edge6" class="edge"><title>Dmv&#45;&gt;Subscription</title>
<path fill="none" stroke="#4b7289" d="M155.809,-69.428C165.796,-60.4647 177.665,-49.8138 187.915,-40.6151"/>
<ellipse fill="none" stroke="#4b7289" cx="152.761" cy="-72.1628" rx="4.00002" ry="4.00002"/>
<ellipse fill="#4b7289" stroke="#4b7289" cx="191.079" cy="-37.775" rx="4.00002" ry="4.00002"/>
</g>
<!-- Ebay -->
<g id="node5" class="node"><title>Ebay</title>
<ellipse fill="none" stroke="black" cx="212" cy="-90" rx="30.281" ry="18"/>
<text text-anchor="middle" x="212" y="-85.4" font-family="Times,serif" font-size="14.00">Ebay</text>
</g>
<!-- Ebay&#45;&gt;Subscription -->
<g id="edge8" class="edge"><title>Ebay&#45;&gt;Subscription</title>
<path fill="none" stroke="#798978" d="M212,-63.6398C212,-57.348 212,-50.6053 212,-44.3156"/>
<ellipse fill="none" stroke="#798978" cx="212" cy="-67.6966" rx="4" ry="4"/>
<ellipse fill="#798978" stroke="#798978" cx="212" cy="-40.1043" rx="4" ry="4"/>
</g>
<!-- Subscriber -->
<g id="node6" class="node"><title>Subscriber</title>
<ellipse fill="none" stroke="black" cx="435" cy="-186" rx="50.4737" ry="18"/>
<text text-anchor="middle" x="435" y="-181.4" font-family="Times,serif" font-size="14.00">Subscriber</text>
</g>
<!-- User -->
<g id="node8" class="node"><title>User</title>
<ellipse fill="none" stroke="black" cx="337" cy="-186" rx="28.271" ry="18"/>
<text text-anchor="middle" x="337" y="-181.4" font-family="Times,serif" font-size="14.00">User</text>
</g>
<!-- User&#45;&gt;Address -->
<g id="edge10" class="edge"><title>User&#45;&gt;Address</title>
<path fill="none" stroke="#953ffe" d="M327.889,-160.529C322.989,-147.37 316.94,-131.125 311.922,-117.647"/>
<ellipse fill="none" stroke="#953ffe" cx="329.347" cy="-164.446" rx="4.00001" ry="4.00001"/>
<polygon fill="#953ffe" stroke="#953ffe" points="311.811,-117.348 312.538,-106.407 310.066,-112.662 308.321,-107.977 308.321,-107.977 308.321,-107.977 310.066,-112.662 304.104,-109.547 311.811,-117.348 311.811,-117.348"/>
</g>
<!-- User&#45;&gt;Subscription -->
<g id="edge12" class="edge"><title>User&#45;&gt;Subscription</title>
<path fill="none" stroke="#eed8e8" d="M350.034,-159.41C360.523,-134.845 370.844,-97.771 353,-72 335.488,-46.709 304.299,-33.47 275.7,-26.5472"/>
<polygon fill="#eed8e8" stroke="#eed8e8" points="349.907,-159.688 341.666,-166.923 347.834,-164.238 345.761,-168.788 345.761,-168.788 345.761,-168.788 347.834,-164.238 349.857,-170.654 349.907,-159.688 349.907,-159.688"/>
<polygon fill="#eed8e8" stroke="#eed8e8" points="275.485,-26.5001 266.685,-19.9575 270.602,-25.4263 265.718,-24.3525 265.718,-24.3525 265.718,-24.3525 270.602,-25.4263 264.752,-28.7475 275.485,-26.5001 275.485,-26.5001"/>
</g>
<!-- UserSession -->
<g id="node9" class="node"><title>UserSession</title>
<polygon fill="none" stroke="black" points="651.25,-108 566.75,-108 566.75,-72 651.25,-72 651.25,-108"/>
<text text-anchor="middle" x="609" y="-85.4" font-family="Times,serif" font-size="14.00">UserSession</text>
</g>
<!-- Authlogic::Session::Base -->
<g id="node16" class="node"><title>Authlogic::Session::Base</title>
<ellipse fill="none" stroke="black" cx="609" cy="-186" rx="104.979" ry="18"/>
<text text-anchor="middle" x="609" y="-181.4" font-family="Times,serif" font-size="14.00">Authlogic::Session::Base</text>
</g>
<!-- Authlogic::Session::Base&#45;&gt;UserSession -->
<g id="edge14" class="edge"><title>Authlogic::Session::Base&#45;&gt;UserSession</title>
<path fill="none" stroke="black" d="M609,-167.759C609,-150.798 609,-125.055 609,-108.132"/>
</g>
</g>
</svg>
