<?xml version="1.0" encoding="UTF-8" standalone="no"?>
<!DOCTYPE svg PUBLIC "-//W3C//DTD SVG 1.1//EN"
 "http://www.w3.org/Graphics/SVG/1.1/DTD/svg11.dtd">
<!-- Generated by graphviz version 2.28.0 (20120305.0235)
 -->
<!-- Title: models_diagram Pages: 1 -->
<svg width="1045pt" height="598pt"
 viewBox="0.00 0.00 1045.00 598.00" xmlns="http://www.w3.org/2000/svg" xmlns:xlink="http://www.w3.org/1999/xlink">
<g id="graph1" class="graph" transform="scale(1 1) rotate(0) translate(4 594)">
<title>models_diagram</title>
<polygon fill="white" stroke="white" points="-4,5 -4,-594 1042,-594 1042,5 -4,5"/>
<!-- _diagram_info -->
<g id="node1" class="node"><title>_diagram_info</title>
<text text-anchor="start" x="284" y="-478.8" font-family="Times,serif" font-size="13.00">Models diagram</text>
<text text-anchor="start" x="284" y="-463.8" font-family="Times,serif" font-size="13.00">Date: Apr 29 2012 &#45; 21:02</text>
<text text-anchor="start" x="284" y="-448.8" font-family="Times,serif" font-size="13.00">Migration version: 20120412225032</text>
<text text-anchor="start" x="284" y="-433.8" font-family="Times,serif" font-size="13.00">Generated by RailRoady 1.0.7</text>
<text text-anchor="start" x="284" y="-418.8" font-family="Times,serif" font-size="13.00">http://railroady.prestonlee.com</text>
</g>
<!-- Address -->
<g id="node2" class="node"><title>Address</title>
<polyline fill="none" stroke="black" points="476.5,-119 585.5,-119 "/>
<path fill="none" stroke="black" d="M585.5,-119C591.5,-119 597.5,-125 597.5,-131"/>
<polyline fill="none" stroke="black" points="597.5,-131 597.5,-267 "/>
<path fill="none" stroke="black" d="M597.5,-267C597.5,-273 591.5,-279 585.5,-279"/>
<polyline fill="none" stroke="black" points="585.5,-279 476.5,-279 "/>
<path fill="none" stroke="black" d="M476.5,-279C470.5,-279 464.5,-273 464.5,-267"/>
<polyline fill="none" stroke="black" points="464.5,-267 464.5,-131 "/>
<path fill="none" stroke="black" d="M464.5,-131C464.5,-125 470.5,-119 476.5,-119"/>
<text text-anchor="middle" x="531" y="-262.4" font-family="Times,serif" font-size="14.00">Address</text>
<polyline fill="none" stroke="black" points="464.5,-255 597.5,-255 "/>
<text text-anchor="start" x="472.5" y="-238.4" font-family="Times,serif" font-size="14.00">line1 :string</text>
<text text-anchor="start" x="472.5" y="-222.4" font-family="Times,serif" font-size="14.00">line2 :string</text>
<text text-anchor="start" x="472.5" y="-206.4" font-family="Times,serif" font-size="14.00">city :string</text>
<text text-anchor="start" x="472.5" y="-190.4" font-family="Times,serif" font-size="14.00">state :string</text>
<text text-anchor="start" x="472.5" y="-174.4" font-family="Times,serif" font-size="14.00">zip :string</text>
<text text-anchor="start" x="472.5" y="-158.4" font-family="Times,serif" font-size="14.00">category :string</text>
<text text-anchor="start" x="472.5" y="-142.4" font-family="Times,serif" font-size="14.00">created_at :datetime</text>
<text text-anchor="start" x="472.5" y="-126.4" font-family="Times,serif" font-size="14.00">updated_at :datetime</text>
</g>
<!-- Subscription -->
<g id="node7" class="node"><title>Subscription</title>
<polyline fill="none" stroke="black" points="311.5,-1 442.5,-1 "/>
<path fill="none" stroke="black" d="M442.5,-1C448.5,-1 454.5,-7 454.5,-13"/>
<polyline fill="none" stroke="black" points="454.5,-13 454.5,-69 "/>
<path fill="none" stroke="black" d="M454.5,-69C454.5,-75 448.5,-81 442.5,-81"/>
<polyline fill="none" stroke="black" points="442.5,-81 311.5,-81 "/>
<path fill="none" stroke="black" d="M311.5,-81C305.5,-81 299.5,-75 299.5,-69"/>
<polyline fill="none" stroke="black" points="299.5,-69 299.5,-13 "/>
<path fill="none" stroke="black" d="M299.5,-13C299.5,-7 305.5,-1 311.5,-1"/>
<text text-anchor="middle" x="377" y="-64.4" font-family="Times,serif" font-size="14.00">Subscription</text>
<polyline fill="none" stroke="black" points="299.5,-57 454.5,-57 "/>
<text text-anchor="start" x="307.5" y="-40.4" font-family="Times,serif" font-size="14.00">created_at :datetime</text>
<text text-anchor="start" x="307.5" y="-24.4" font-family="Times,serif" font-size="14.00">updated_at :datetime</text>
<text text-anchor="start" x="307.5" y="-8.4" font-family="Times,serif" font-size="14.00">subscribable_type :string</text>
</g>
<!-- Address&#45;&gt;Subscription -->
<g id="edge2" class="edge"><title>Address&#45;&gt;Subscription</title>
<path fill="none" stroke="#0599d1" d="M458.799,-121.859C457.525,-120.561 456.258,-119.274 455,-118 445.379,-108.257 434.959,-97.9438 424.963,-88.1633"/>
<ellipse fill="none" stroke="#0599d1" cx="461.628" cy="-124.753" rx="4.00002" ry="4.00002"/>
<polygon fill="#0599d1" stroke="#0599d1" points="424.933,-88.1348 420.918,-77.9304 421.354,-84.6431 417.776,-81.1514 417.776,-81.1514 417.776,-81.1514 421.354,-84.6431 414.633,-84.3724 424.933,-88.1348 424.933,-88.1348"/>
</g>
<!-- Amazon -->
<g id="node3" class="node"><title>Amazon</title>
<polyline fill="none" stroke="black" points="11.5,-127 126.5,-127 "/>
<path fill="none" stroke="black" d="M126.5,-127C132.5,-127 138.5,-133 138.5,-139"/>
<polyline fill="none" stroke="black" points="138.5,-139 138.5,-259 "/>
<path fill="none" stroke="black" d="M138.5,-259C138.5,-265 132.5,-271 126.5,-271"/>
<polyline fill="none" stroke="black" points="126.5,-271 11.5,-271 "/>
<path fill="none" stroke="black" d="M11.5,-271C5.5,-271 -0.5,-265 -0.5,-259"/>
<polyline fill="none" stroke="black" points="-0.5,-259 -0.5,-139 "/>
<path fill="none" stroke="black" d="M-0.5,-139C-0.5,-133 5.5,-127 11.5,-127"/>
<text text-anchor="middle" x="69" y="-254.4" font-family="Times,serif" font-size="14.00">Amazon</text>
<polyline fill="none" stroke="black" points="-0.5,-247 138.5,-247 "/>
<text text-anchor="start" x="7.5" y="-230.4" font-family="Times,serif" font-size="14.00">email :string</text>
<text text-anchor="start" x="7.5" y="-214.4" font-family="Times,serif" font-size="14.00">full_name :string</text>
<text text-anchor="start" x="7.5" y="-198.4" font-family="Times,serif" font-size="14.00">country :string</text>
<text text-anchor="start" x="7.5" y="-182.4" font-family="Times,serif" font-size="14.00">phone_number :string</text>
<text text-anchor="start" x="7.5" y="-166.4" font-family="Times,serif" font-size="14.00">created_at :datetime</text>
<text text-anchor="start" x="7.5" y="-150.4" font-family="Times,serif" font-size="14.00">updated_at :datetime</text>
<text text-anchor="start" x="7.5" y="-134.4" font-family="Times,serif" font-size="14.00">password :string</text>
</g>
<!-- Amazon&#45;&gt;Subscription -->
<g id="edge4" class="edge"><title>Amazon&#45;&gt;Subscription</title>
<path fill="none" stroke="#434900" d="M141.031,-121.936C143.005,-120.568 144.995,-119.253 147,-118 191.162,-90.3988 246.418,-71.717 291.702,-59.784"/>
<ellipse fill="none" stroke="#434900" cx="137.624" cy="-124.423" rx="4.00002" ry="4.00002"/>
<ellipse fill="#434900" stroke="#434900" cx="295.584" cy="-58.781" rx="4.00001" ry="4.00001"/>
</g>
<!-- Dmv -->
<g id="node4" class="node"><title>Dmv</title>
<polyline fill="none" stroke="black" points="168.5,-143 277.5,-143 "/>
<path fill="none" stroke="black" d="M277.5,-143C283.5,-143 289.5,-149 289.5,-155"/>
<polyline fill="none" stroke="black" points="289.5,-155 289.5,-243 "/>
<path fill="none" stroke="black" d="M289.5,-243C289.5,-249 283.5,-255 277.5,-255"/>
<polyline fill="none" stroke="black" points="277.5,-255 168.5,-255 "/>
<path fill="none" stroke="black" d="M168.5,-255C162.5,-255 156.5,-249 156.5,-243"/>
<polyline fill="none" stroke="black" points="156.5,-243 156.5,-155 "/>
<path fill="none" stroke="black" d="M156.5,-155C156.5,-149 162.5,-143 168.5,-143"/>
<text text-anchor="middle" x="223" y="-238.4" font-family="Times,serif" font-size="14.00">Dmv</text>
<polyline fill="none" stroke="black" points="156.5,-231 289.5,-231 "/>
<text text-anchor="start" x="164.5" y="-214.4" font-family="Times,serif" font-size="14.00">driver_license :string</text>
<text text-anchor="start" x="164.5" y="-198.4" font-family="Times,serif" font-size="14.00">ssn :string</text>
<text text-anchor="start" x="164.5" y="-182.4" font-family="Times,serif" font-size="14.00">county :string</text>
<text text-anchor="start" x="164.5" y="-166.4" font-family="Times,serif" font-size="14.00">created_at :datetime</text>
<text text-anchor="start" x="164.5" y="-150.4" font-family="Times,serif" font-size="14.00">updated_at :datetime</text>
</g>
<!-- Dmv&#45;&gt;Subscription -->
<g id="edge6" class="edge"><title>Dmv&#45;&gt;Subscription</title>
<path fill="none" stroke="#d3fdef" d="M279.526,-137.046C285.714,-130.571 291.958,-124.12 298,-118 308.153,-107.715 319.234,-96.8446 329.799,-86.6409"/>
<ellipse fill="none" stroke="#d3fdef" cx="276.625" cy="-140.093" rx="4.00002" ry="4.00002"/>
<ellipse fill="#d3fdef" stroke="#d3fdef" cx="332.725" cy="-83.8234" rx="4.00002" ry="4.00002"/>
</g>
<!-- Ebay -->
<g id="node5" class="node"><title>Ebay</title>
<polyline fill="none" stroke="black" points="319.5,-127 434.5,-127 "/>
<path fill="none" stroke="black" d="M434.5,-127C440.5,-127 446.5,-133 446.5,-139"/>
<polyline fill="none" stroke="black" points="446.5,-139 446.5,-259 "/>
<path fill="none" stroke="black" d="M446.5,-259C446.5,-265 440.5,-271 434.5,-271"/>
<polyline fill="none" stroke="black" points="434.5,-271 319.5,-271 "/>
<path fill="none" stroke="black" d="M319.5,-271C313.5,-271 307.5,-265 307.5,-259"/>
<polyline fill="none" stroke="black" points="307.5,-259 307.5,-139 "/>
<path fill="none" stroke="black" d="M307.5,-139C307.5,-133 313.5,-127 319.5,-127"/>
<text text-anchor="middle" x="377" y="-254.4" font-family="Times,serif" font-size="14.00">Ebay</text>
<polyline fill="none" stroke="black" points="307.5,-247 446.5,-247 "/>
<text text-anchor="start" x="315.5" y="-230.4" font-family="Times,serif" font-size="14.00">first_name :string</text>
<text text-anchor="start" x="315.5" y="-214.4" font-family="Times,serif" font-size="14.00">last_name :string</text>
<text text-anchor="start" x="315.5" y="-198.4" font-family="Times,serif" font-size="14.00">country :string</text>
<text text-anchor="start" x="315.5" y="-182.4" font-family="Times,serif" font-size="14.00">phone_number :string</text>
<text text-anchor="start" x="315.5" y="-166.4" font-family="Times,serif" font-size="14.00">created_at :datetime</text>
<text text-anchor="start" x="315.5" y="-150.4" font-family="Times,serif" font-size="14.00">updated_at :datetime</text>
<text text-anchor="start" x="315.5" y="-134.4" font-family="Times,serif" font-size="14.00">username :string</text>
</g>
<!-- Ebay&#45;&gt;Subscription -->
<g id="edge8" class="edge"><title>Ebay&#45;&gt;Subscription</title>
<path fill="none" stroke="#01b840" d="M377,-118.706C377,-108.585 377,-98.4922 377,-89.1108"/>
<ellipse fill="none" stroke="#01b840" cx="377" cy="-122.848" rx="4" ry="4"/>
<ellipse fill="#01b840" stroke="#01b840" cx="377" cy="-85.0666" rx="4" ry="4"/>
</g>
<!-- Subscriber -->
<g id="node6" class="node"><title>Subscriber</title>
<polyline fill="none" stroke="black" points="687.5,-405 796.5,-405 "/>
<path fill="none" stroke="black" d="M796.5,-405C802.5,-405 808.5,-411 808.5,-417"/>
<polyline fill="none" stroke="black" points="808.5,-417 808.5,-489 "/>
<path fill="none" stroke="black" d="M808.5,-489C808.5,-495 802.5,-501 796.5,-501"/>
<polyline fill="none" stroke="black" points="796.5,-501 687.5,-501 "/>
<path fill="none" stroke="black" d="M687.5,-501C681.5,-501 675.5,-495 675.5,-489"/>
<polyline fill="none" stroke="black" points="675.5,-489 675.5,-417 "/>
<path fill="none" stroke="black" d="M675.5,-417C675.5,-411 681.5,-405 687.5,-405"/>
<text text-anchor="middle" x="742" y="-484.4" font-family="Times,serif" font-size="14.00">Subscriber</text>
<polyline fill="none" stroke="black" points="675.5,-477 808.5,-477 "/>
<text text-anchor="start" x="683.5" y="-460.4" font-family="Times,serif" font-size="14.00">name :string</text>
<text text-anchor="start" x="683.5" y="-444.4" font-family="Times,serif" font-size="14.00">img_path :string</text>
<text text-anchor="start" x="683.5" y="-428.4" font-family="Times,serif" font-size="14.00">created_at :datetime</text>
<text text-anchor="start" x="683.5" y="-412.4" font-family="Times,serif" font-size="14.00">updated_at :datetime</text>
</g>
<!-- User -->
<g id="node8" class="node"><title>User</title>
<polyline fill="none" stroke="black" points="512.5,-317 645.5,-317 "/>
<path fill="none" stroke="black" d="M645.5,-317C651.5,-317 657.5,-323 657.5,-329"/>
<polyline fill="none" stroke="black" points="657.5,-329 657.5,-577 "/>
<path fill="none" stroke="black" d="M657.5,-577C657.5,-583 651.5,-589 645.5,-589"/>
<polyline fill="none" stroke="black" points="645.5,-589 512.5,-589 "/>
<path fill="none" stroke="black" d="M512.5,-589C506.5,-589 500.5,-583 500.5,-577"/>
<polyline fill="none" stroke="black" points="500.5,-577 500.5,-329 "/>
<path fill="none" stroke="black" d="M500.5,-329C500.5,-323 506.5,-317 512.5,-317"/>
<text text-anchor="middle" x="579" y="-572.4" font-family="Times,serif" font-size="14.00">User</text>
<polyline fill="none" stroke="black" points="500.5,-565 657.5,-565 "/>
<text text-anchor="start" x="508.5" y="-548.4" font-family="Times,serif" font-size="14.00">first_name :string</text>
<text text-anchor="start" x="508.5" y="-532.4" font-family="Times,serif" font-size="14.00">last_name :string</text>
<text text-anchor="start" x="508.5" y="-516.4" font-family="Times,serif" font-size="14.00">gender :string</text>
<text text-anchor="start" x="508.5" y="-500.4" font-family="Times,serif" font-size="14.00">email :string</text>
<text text-anchor="start" x="508.5" y="-484.4" font-family="Times,serif" font-size="14.00">fb_uid :string</text>
<text text-anchor="start" x="508.5" y="-468.4" font-family="Times,serif" font-size="14.00">created_at :datetime</text>
<text text-anchor="start" x="508.5" y="-452.4" font-family="Times,serif" font-size="14.00">updated_at :datetime</text>
<text text-anchor="start" x="508.5" y="-436.4" font-family="Times,serif" font-size="14.00">crypted_password :string</text>
<text text-anchor="start" x="508.5" y="-420.4" font-family="Times,serif" font-size="14.00">password_salt :string</text>
<text text-anchor="start" x="508.5" y="-404.4" font-family="Times,serif" font-size="14.00">persistence_token :string</text>
<text text-anchor="start" x="508.5" y="-388.4" font-family="Times,serif" font-size="14.00">last_login_at :datetime</text>
<text text-anchor="start" x="508.5" y="-372.4" font-family="Times,serif" font-size="14.00">last_request_at :datetime</text>
<text text-anchor="start" x="508.5" y="-356.4" font-family="Times,serif" font-size="14.00">current_login_ip :string</text>
<text text-anchor="start" x="508.5" y="-340.4" font-family="Times,serif" font-size="14.00">last_login_ip :string</text>
<text text-anchor="start" x="508.5" y="-324.4" font-family="Times,serif" font-size="14.00">status :string</text>
</g>
<!-- User&#45;&gt;Address -->
<g id="edge10" class="edge"><title>User&#45;&gt;Address</title>
<path fill="none" stroke="#2df5be" d="M551.7,-308.673C550.441,-302.063 549.194,-295.518 547.974,-289.112"/>
<ellipse fill="none" stroke="#2df5be" cx="552.495" cy="-312.849" rx="4.00001" ry="4.00001"/>
<polygon fill="#2df5be" stroke="#2df5be" points="547.951,-288.995 550.501,-278.329 547.016,-284.083 546.08,-279.171 546.08,-279.171 546.08,-279.171 547.016,-284.083 541.66,-280.013 547.951,-288.995 547.951,-288.995"/>
</g>
<!-- User&#45;&gt;Subscription -->
<g id="edge12" class="edge"><title>User&#45;&gt;Subscription</title>
<path fill="none" stroke="#8d684a" d="M630.646,-306.795C643.71,-243.472 644.7,-171.62 606,-118 573.881,-73.4989 514.658,-54.6415 464.487,-46.8356"/>
<polygon fill="#8d684a" stroke="#8d684a" points="630.578,-307.109 624.053,-315.923 629.514,-311.995 628.45,-316.88 628.45,-316.88 628.45,-316.88 629.514,-311.995 632.847,-317.838 630.578,-307.109 630.578,-307.109"/>
<polygon fill="#8d684a" stroke="#8d684a" points="464.483,-46.8352 455.222,-40.9629 459.533,-46.1263 454.584,-45.4175 454.584,-45.4175 454.584,-45.4175 459.533,-46.1263 453.946,-49.8721 464.483,-46.8352 464.483,-46.8352"/>
</g>
<!-- UserSession -->
<g id="node9" class="node"><title>UserSession</title>
<polygon fill="none" stroke="black" points="889.5,-175 889.5,-223 974.5,-223 974.5,-175 889.5,-175"/>
<text text-anchor="middle" x="932" y="-206.4" font-family="Times,serif" font-size="14.00">UserSession</text>
<polyline fill="none" stroke="black" points="889.5,-199 974.5,-199 "/>
<text text-anchor="middle" x="932" y="-182.4" font-family="Times,serif" font-size="14.00"> </text>
</g>
<!-- Authlogic::Session::Base -->
<g id="node16" class="node"><title>Authlogic::Session::Base</title>
<ellipse fill="none" stroke="black" cx="932" cy="-453" rx="104.979" ry="18"/>
<text text-anchor="middle" x="932" y="-448.4" font-family="Times,serif" font-size="14.00">Authlogic::Session::Base</text>
</g>
<!-- Authlogic::Session::Base&#45;&gt;UserSession -->
<g id="edge14" class="edge"><title>Authlogic::Session::Base&#45;&gt;UserSession</title>
<path fill="none" stroke="black" d="M932,-434.679C932,-390.422 932,-273.163 932,-223.14"/>
</g>
</g>
</svg>
