<?xml version="1.0" encoding="UTF-8" standalone="no"?>
<!DOCTYPE svg PUBLIC "-//W3C//DTD SVG 1.1//EN"
 "http://www.w3.org/Graphics/SVG/1.1/DTD/svg11.dtd">
<!-- Generated by graphviz version 2.28.0 (20120305.0235)
 -->
<!-- Title: models_diagram Pages: 1 -->
<svg width="920pt" height="480pt"
 viewBox="0.00 0.00 920.00 480.00" xmlns="http://www.w3.org/2000/svg" xmlns:xlink="http://www.w3.org/1999/xlink">
<g id="graph1" class="graph" transform="scale(1 1) rotate(0) translate(4 476)">
<title>models_diagram</title>
<polygon fill="white" stroke="white" points="-4,5 -4,-476 917,-476 917,5 -4,5"/>
<!-- _diagram_info -->
<g id="node1" class="node"><title>_diagram_info</title>
<text text-anchor="start" x="8" y="-360.8" font-family="Times,serif" font-size="13.00">Models diagram</text>
<text text-anchor="start" x="8" y="-345.8" font-family="Times,serif" font-size="13.00">Date: Mar 04 2012 &#45; 20:37</text>
<text text-anchor="start" x="8" y="-330.8" font-family="Times,serif" font-size="13.00">Migration version: 20120304223241</text>
<text text-anchor="start" x="8" y="-315.8" font-family="Times,serif" font-size="13.00">Generated by RailRoady 1.0.7</text>
<text text-anchor="start" x="8" y="-300.8" font-family="Times,serif" font-size="13.00">http://railroady.prestonlee.com</text>
</g>
<!-- Address -->
<g id="node2" class="node"><title>Address</title>
<polyline fill="none" stroke="black" points="248.5,-1 357.5,-1 "/>
<path fill="none" stroke="black" d="M357.5,-1C363.5,-1 369.5,-7 369.5,-13"/>
<polyline fill="none" stroke="black" points="369.5,-13 369.5,-149 "/>
<path fill="none" stroke="black" d="M369.5,-149C369.5,-155 363.5,-161 357.5,-161"/>
<polyline fill="none" stroke="black" points="357.5,-161 248.5,-161 "/>
<path fill="none" stroke="black" d="M248.5,-161C242.5,-161 236.5,-155 236.5,-149"/>
<polyline fill="none" stroke="black" points="236.5,-149 236.5,-13 "/>
<path fill="none" stroke="black" d="M236.5,-13C236.5,-7 242.5,-1 248.5,-1"/>
<text text-anchor="middle" x="303" y="-144.4" font-family="Times,serif" font-size="14.00">Address</text>
<polyline fill="none" stroke="black" points="236.5,-137 369.5,-137 "/>
<text text-anchor="start" x="244.5" y="-120.4" font-family="Times,serif" font-size="14.00">line1 :string</text>
<text text-anchor="start" x="244.5" y="-104.4" font-family="Times,serif" font-size="14.00">line2 :string</text>
<text text-anchor="start" x="244.5" y="-88.4" font-family="Times,serif" font-size="14.00">city :string</text>
<text text-anchor="start" x="244.5" y="-72.4" font-family="Times,serif" font-size="14.00">state :string</text>
<text text-anchor="start" x="244.5" y="-56.4" font-family="Times,serif" font-size="14.00">zip :string</text>
<text text-anchor="start" x="244.5" y="-40.4" font-family="Times,serif" font-size="14.00">category :string</text>
<text text-anchor="start" x="244.5" y="-24.4" font-family="Times,serif" font-size="14.00">created_at :datetime</text>
<text text-anchor="start" x="244.5" y="-8.4" font-family="Times,serif" font-size="14.00">updated_at :datetime</text>
</g>
<!-- Dmv -->
<g id="node3" class="node"><title>Dmv</title>
<polyline fill="none" stroke="black" points="411.5,-279 520.5,-279 "/>
<path fill="none" stroke="black" d="M520.5,-279C526.5,-279 532.5,-285 532.5,-291"/>
<polyline fill="none" stroke="black" points="532.5,-291 532.5,-379 "/>
<path fill="none" stroke="black" d="M532.5,-379C532.5,-385 526.5,-391 520.5,-391"/>
<polyline fill="none" stroke="black" points="520.5,-391 411.5,-391 "/>
<path fill="none" stroke="black" d="M411.5,-391C405.5,-391 399.5,-385 399.5,-379"/>
<polyline fill="none" stroke="black" points="399.5,-379 399.5,-291 "/>
<path fill="none" stroke="black" d="M399.5,-291C399.5,-285 405.5,-279 411.5,-279"/>
<text text-anchor="middle" x="466" y="-374.4" font-family="Times,serif" font-size="14.00">Dmv</text>
<polyline fill="none" stroke="black" points="399.5,-367 532.5,-367 "/>
<text text-anchor="start" x="407.5" y="-350.4" font-family="Times,serif" font-size="14.00">driver_license :string</text>
<text text-anchor="start" x="407.5" y="-334.4" font-family="Times,serif" font-size="14.00">ssn :string</text>
<text text-anchor="start" x="407.5" y="-318.4" font-family="Times,serif" font-size="14.00">county :string</text>
<text text-anchor="start" x="407.5" y="-302.4" font-family="Times,serif" font-size="14.00">created_at :datetime</text>
<text text-anchor="start" x="407.5" y="-286.4" font-family="Times,serif" font-size="14.00">updated_at :datetime</text>
</g>
<!-- Subscription -->
<g id="node5" class="node"><title>Subscription</title>
<polyline fill="none" stroke="black" points="400.5,-41 531.5,-41 "/>
<path fill="none" stroke="black" d="M531.5,-41C537.5,-41 543.5,-47 543.5,-53"/>
<polyline fill="none" stroke="black" points="543.5,-53 543.5,-109 "/>
<path fill="none" stroke="black" d="M543.5,-109C543.5,-115 537.5,-121 531.5,-121"/>
<polyline fill="none" stroke="black" points="531.5,-121 400.5,-121 "/>
<path fill="none" stroke="black" d="M400.5,-121C394.5,-121 388.5,-115 388.5,-109"/>
<polyline fill="none" stroke="black" points="388.5,-109 388.5,-53 "/>
<path fill="none" stroke="black" d="M388.5,-53C388.5,-47 394.5,-41 400.5,-41"/>
<text text-anchor="middle" x="466" y="-104.4" font-family="Times,serif" font-size="14.00">Subscription</text>
<polyline fill="none" stroke="black" points="388.5,-97 543.5,-97 "/>
<text text-anchor="start" x="396.5" y="-80.4" font-family="Times,serif" font-size="14.00">created_at :datetime</text>
<text text-anchor="start" x="396.5" y="-64.4" font-family="Times,serif" font-size="14.00">updated_at :datetime</text>
<text text-anchor="start" x="396.5" y="-48.4" font-family="Times,serif" font-size="14.00">subscribable_type :string</text>
</g>
<!-- Dmv&#45;&gt;Subscription -->
<g id="edge2" class="edge"><title>Dmv&#45;&gt;Subscription</title>
<path fill="none" stroke="#ed97ee" d="M466,-270.414C466,-226.57 466,-169.237 466,-129.382"/>
<ellipse fill="none" stroke="#ed97ee" cx="466" cy="-274.698" rx="4" ry="4"/>
<ellipse fill="#ed97ee" stroke="#ed97ee" cx="466" cy="-125.154" rx="4" ry="4"/>
</g>
<!-- Subscriber -->
<g id="node4" class="node"><title>Subscriber</title>
<polyline fill="none" stroke="black" points="562.5,-287 671.5,-287 "/>
<path fill="none" stroke="black" d="M671.5,-287C677.5,-287 683.5,-293 683.5,-299"/>
<polyline fill="none" stroke="black" points="683.5,-299 683.5,-371 "/>
<path fill="none" stroke="black" d="M683.5,-371C683.5,-377 677.5,-383 671.5,-383"/>
<polyline fill="none" stroke="black" points="671.5,-383 562.5,-383 "/>
<path fill="none" stroke="black" d="M562.5,-383C556.5,-383 550.5,-377 550.5,-371"/>
<polyline fill="none" stroke="black" points="550.5,-371 550.5,-299 "/>
<path fill="none" stroke="black" d="M550.5,-299C550.5,-293 556.5,-287 562.5,-287"/>
<text text-anchor="middle" x="617" y="-366.4" font-family="Times,serif" font-size="14.00">Subscriber</text>
<polyline fill="none" stroke="black" points="550.5,-359 683.5,-359 "/>
<text text-anchor="start" x="558.5" y="-342.4" font-family="Times,serif" font-size="14.00">name :string</text>
<text text-anchor="start" x="558.5" y="-326.4" font-family="Times,serif" font-size="14.00">img_path :string</text>
<text text-anchor="start" x="558.5" y="-310.4" font-family="Times,serif" font-size="14.00">created_at :datetime</text>
<text text-anchor="start" x="558.5" y="-294.4" font-family="Times,serif" font-size="14.00">updated_at :datetime</text>
</g>
<!-- User -->
<g id="node6" class="node"><title>User</title>
<polyline fill="none" stroke="black" points="236.5,-199 369.5,-199 "/>
<path fill="none" stroke="black" d="M369.5,-199C375.5,-199 381.5,-205 381.5,-211"/>
<polyline fill="none" stroke="black" points="381.5,-211 381.5,-459 "/>
<path fill="none" stroke="black" d="M381.5,-459C381.5,-465 375.5,-471 369.5,-471"/>
<polyline fill="none" stroke="black" points="369.5,-471 236.5,-471 "/>
<path fill="none" stroke="black" d="M236.5,-471C230.5,-471 224.5,-465 224.5,-459"/>
<polyline fill="none" stroke="black" points="224.5,-459 224.5,-211 "/>
<path fill="none" stroke="black" d="M224.5,-211C224.5,-205 230.5,-199 236.5,-199"/>
<text text-anchor="middle" x="303" y="-454.4" font-family="Times,serif" font-size="14.00">User</text>
<polyline fill="none" stroke="black" points="224.5,-447 381.5,-447 "/>
<text text-anchor="start" x="232.5" y="-430.4" font-family="Times,serif" font-size="14.00">first_name :string</text>
<text text-anchor="start" x="232.5" y="-414.4" font-family="Times,serif" font-size="14.00">last_name :string</text>
<text text-anchor="start" x="232.5" y="-398.4" font-family="Times,serif" font-size="14.00">gender :string</text>
<text text-anchor="start" x="232.5" y="-382.4" font-family="Times,serif" font-size="14.00">email :string</text>
<text text-anchor="start" x="232.5" y="-366.4" font-family="Times,serif" font-size="14.00">fb_uid :string</text>
<text text-anchor="start" x="232.5" y="-350.4" font-family="Times,serif" font-size="14.00">created_at :datetime</text>
<text text-anchor="start" x="232.5" y="-334.4" font-family="Times,serif" font-size="14.00">updated_at :datetime</text>
<text text-anchor="start" x="232.5" y="-318.4" font-family="Times,serif" font-size="14.00">crypted_password :string</text>
<text text-anchor="start" x="232.5" y="-302.4" font-family="Times,serif" font-size="14.00">password_salt :string</text>
<text text-anchor="start" x="232.5" y="-286.4" font-family="Times,serif" font-size="14.00">persistence_token :string</text>
<text text-anchor="start" x="232.5" y="-270.4" font-family="Times,serif" font-size="14.00">last_login_at :datetime</text>
<text text-anchor="start" x="232.5" y="-254.4" font-family="Times,serif" font-size="14.00">last_request_at :datetime</text>
<text text-anchor="start" x="232.5" y="-238.4" font-family="Times,serif" font-size="14.00">current_login_ip :string</text>
<text text-anchor="start" x="232.5" y="-222.4" font-family="Times,serif" font-size="14.00">last_login_ip :string</text>
<text text-anchor="start" x="232.5" y="-206.4" font-family="Times,serif" font-size="14.00">status :string</text>
</g>
<!-- User&#45;&gt;Address -->
<g id="edge4" class="edge"><title>User&#45;&gt;Address</title>
<path fill="none" stroke="#e97200" d="M303,-190.673C303,-184.221 303,-177.83 303,-171.57"/>
<ellipse fill="none" stroke="#e97200" cx="303" cy="-194.779" rx="4" ry="4"/>
<polygon fill="#e97200" stroke="#e97200" points="303,-171.171 307.5,-161.171 303,-166.171 303,-161.171 303,-161.171 303,-161.171 303,-166.171 298.5,-161.171 303,-171.171 303,-171.171"/>
</g>
<!-- UserSession -->
<g id="node7" class="node"><title>UserSession</title>
<polygon fill="none" stroke="black" points="764.5,-57 764.5,-105 849.5,-105 849.5,-57 764.5,-57"/>
<text text-anchor="middle" x="807" y="-88.4" font-family="Times,serif" font-size="14.00">UserSession</text>
<polyline fill="none" stroke="black" points="764.5,-81 849.5,-81 "/>
<text text-anchor="middle" x="807" y="-64.4" font-family="Times,serif" font-size="14.00"> </text>
</g>
<!-- Authlogic::Session::Base -->
<g id="node10" class="node"><title>Authlogic::Session::Base</title>
<ellipse fill="none" stroke="black" cx="807" cy="-335" rx="104.979" ry="18"/>
<text text-anchor="middle" x="807" y="-330.4" font-family="Times,serif" font-size="14.00">Authlogic::Session::Base</text>
</g>
<!-- Authlogic::Session::Base&#45;&gt;UserSession -->
<g id="edge6" class="edge"><title>Authlogic::Session::Base&#45;&gt;UserSession</title>
<path fill="none" stroke="black" d="M807,-316.679C807,-272.422 807,-155.163 807,-105.14"/>
</g>
</g>
</svg>
