<?xml version="1.0" encoding="UTF-8" standalone="no"?>
<!DOCTYPE svg PUBLIC "-//W3C//DTD SVG 1.1//EN"
 "http://www.w3.org/Graphics/SVG/1.1/DTD/svg11.dtd">
<!-- Generated by graphviz version 2.28.0 (20120305.0235)
 -->
<!-- Title: models_diagram Pages: 1 -->
<svg width="756pt" height="164pt"
 viewBox="0.00 0.00 756.00 164.00" xmlns="http://www.w3.org/2000/svg" xmlns:xlink="http://www.w3.org/1999/xlink">
<g id="graph1" class="graph" transform="scale(1 1) rotate(0) translate(4 160)">
<title>models_diagram</title>
<polygon fill="white" stroke="white" points="-4,5 -4,-160 753,-160 753,5 -4,5"/>
<!-- _diagram_info -->
<g id="node1" class="node"><title>_diagram_info</title>
<text text-anchor="start" x="8" y="-139.8" font-family="Times,serif" font-size="13.00">Models diagram</text>
<text text-anchor="start" x="8" y="-124.8" font-family="Times,serif" font-size="13.00">Date: Mar 04 2012 &#45; 20:38</text>
<text text-anchor="start" x="8" y="-109.8" font-family="Times,serif" font-size="13.00">Migration version: 20120304223241</text>
<text text-anchor="start" x="8" y="-94.8" font-family="Times,serif" font-size="13.00">Generated by RailRoady 1.0.7</text>
<text text-anchor="start" x="8" y="-79.8" font-family="Times,serif" font-size="13.00">http://railroady.prestonlee.com</text>
</g>
<!-- Address -->
<g id="node2" class="node"><title>Address</title>
<ellipse fill="none" stroke="black" cx="253" cy="-18" rx="41.8946" ry="18"/>
<text text-anchor="middle" x="253" y="-13.4" font-family="Times,serif" font-size="14.00">Address</text>
</g>
<!-- Dmv -->
<g id="node3" class="node"><title>Dmv</title>
<ellipse fill="none" stroke="black" cx="371" cy="-114" rx="29.274" ry="18"/>
<text text-anchor="middle" x="371" y="-109.4" font-family="Times,serif" font-size="14.00">Dmv</text>
</g>
<!-- Subscription -->
<g id="node5" class="node"><title>Subscription</title>
<ellipse fill="none" stroke="black" cx="371" cy="-18" rx="57.5353" ry="18"/>
<text text-anchor="middle" x="371" y="-13.4" font-family="Times,serif" font-size="14.00">Subscription</text>
</g>
<!-- Dmv&#45;&gt;Subscription -->
<g id="edge2" class="edge"><title>Dmv&#45;&gt;Subscription</title>
<path fill="none" stroke="#f9a2db" d="M371,-87.6832C371,-74.2849 371,-57.8758 371,-44.4566"/>
<ellipse fill="none" stroke="#f9a2db" cx="371" cy="-91.759" rx="4" ry="4"/>
<ellipse fill="#f9a2db" stroke="#f9a2db" cx="371" cy="-40.1317" rx="4" ry="4"/>
</g>
<!-- Subscriber -->
<g id="node4" class="node"><title>Subscriber</title>
<ellipse fill="none" stroke="black" cx="469" cy="-114" rx="50.4737" ry="18"/>
<text text-anchor="middle" x="469" y="-109.4" font-family="Times,serif" font-size="14.00">Subscriber</text>
</g>
<!-- User -->
<g id="node6" class="node"><title>User</title>
<ellipse fill="none" stroke="black" cx="253" cy="-114" rx="28.271" ry="18"/>
<text text-anchor="middle" x="253" y="-109.4" font-family="Times,serif" font-size="14.00">User</text>
</g>
<!-- User&#45;&gt;Address -->
<g id="edge4" class="edge"><title>User&#45;&gt;Address</title>
<path fill="none" stroke="#85e97e" d="M253,-87.6832C253,-74.9229 253,-59.4317 253,-46.3933"/>
<ellipse fill="none" stroke="#85e97e" cx="253" cy="-91.759" rx="4" ry="4"/>
<polygon fill="#85e97e" stroke="#85e97e" points="253,-46.1317 257.5,-36.1317 253,-41.1317 253,-36.1317 253,-36.1317 253,-36.1317 253,-41.1317 248.5,-36.1318 253,-46.1317 253,-46.1317"/>
</g>
<!-- UserSession -->
<g id="node7" class="node"><title>UserSession</title>
<polygon fill="none" stroke="black" points="685.25,-36 600.75,-36 600.75,-0 685.25,-0 685.25,-36"/>
<text text-anchor="middle" x="643" y="-13.4" font-family="Times,serif" font-size="14.00">UserSession</text>
</g>
<!-- Authlogic::Session::Base -->
<g id="node10" class="node"><title>Authlogic::Session::Base</title>
<ellipse fill="none" stroke="black" cx="643" cy="-114" rx="104.979" ry="18"/>
<text text-anchor="middle" x="643" y="-109.4" font-family="Times,serif" font-size="14.00">Authlogic::Session::Base</text>
</g>
<!-- Authlogic::Session::Base&#45;&gt;UserSession -->
<g id="edge6" class="edge"><title>Authlogic::Session::Base&#45;&gt;UserSession</title>
<path fill="none" stroke="black" d="M643,-95.759C643,-78.7983 643,-53.0545 643,-36.1317"/>
</g>
</g>
</svg>
